<?xml version="1.0" standalone="no"?>
<!DOCTYPE svg PUBLIC "-//W3C//DTD SVG 20010904//EN"
 "http://www.w3.org/TR/2001/REC-SVG-20010904/DTD/svg10.dtd">
<svg version="1.0" xmlns="http://www.w3.org/2000/svg"
 width="500.000000pt" height="200.000000pt" viewBox="0 0 500.000000 200.000000"
 preserveAspectRatio="xMidYMid meet">

<g transform="translate(0.000000,200.000000) scale(0.100000,-0.100000)"
fill="#000000" stroke="none">
<path d="M1446 1861 c-33 -34 -20 -49 24 -26 33 17 37 27 17 44 -10 8 -20 4
-41 -18z"/>
<path d="M177 1768 c-3 -13 -9 -69 -13 -125 l-7 -103 26 0 c27 0 30 11 39 115
3 26 7 20 29 -40 35 -92 54 -94 83 -8 28 83 36 87 36 20 0 -72 7 -87 37 -87
l26 0 -7 93 c-11 152 -13 159 -49 155 -27 -3 -32 -9 -54 -68 -14 -36 -26 -66
-27 -68 -2 -1 -15 29 -30 68 -25 63 -30 70 -56 70 -21 0 -29 -6 -33 -22z"/>
<path d="M460 1665 l0 -125 75 0 c73 0 75 1 75 25 0 23 -4 25 -45 25 -41 0
-45 2 -45 25 0 23 4 25 40 25 36 0 40 3 40 25 0 23 -4 25 -40 25 -36 0 -40 3
-40 25 0 23 4 25 45 25 41 0 45 2 45 25 0 24 -2 25 -75 25 l-75 0 0 -125z"/>
<path d="M650 1665 l0 -125 46 0 c55 0 107 23 129 57 19 29 22 101 5 133 -19
36 -70 60 -127 60 l-53 0 0 -125z m110 55 c41 -41 12 -130 -42 -130 -16 0 -18
9 -18 75 0 68 2 75 20 75 11 0 29 -9 40 -20z"/>
<path d="M880 1665 l0 -125 70 0 c68 0 70 1 70 25 0 23 -4 25 -40 25 -36 0
-40 3 -40 25 0 23 4 25 40 25 36 0 40 3 40 25 0 23 -4 25 -40 25 -36 0 -40 3
-40 25 0 23 4 25 40 25 36 0 40 3 40 25 0 24 -2 25 -70 25 l-70 0 0 -125z"/>
<path d="M1060 1665 l0 -125 70 0 c68 0 70 1 70 25 0 23 -4 25 -40 25 l-40 0
0 100 0 100 -30 0 -30 0 0 -125z"/>
<path d="M1240 1665 l0 -125 70 0 c68 0 70 1 70 25 0 23 -4 25 -40 25 l-40 0
0 100 0 100 -30 0 -30 0 0 -125z"/>
<path d="M1420 1665 l0 -125 30 0 30 0 0 125 0 125 -30 0 -30 0 0 -125z"/>
<path d="M1520 1665 l0 -125 30 0 29 0 3 73 3 72 45 -72 c38 -62 49 -73 72
-73 l28 0 0 125 0 125 -25 0 c-23 0 -24 -3 -27 -77 l-3 -78 -49 78 c-42 67
-52 77 -77 77 l-29 0 0 -125z"/>
<path d="M187 1217 c-20 -51 -37 -96 -37 -100 0 -17 42 -6 47 13 4 16 14 20
45 20 31 0 41 -4 45 -20 3 -13 14 -20 29 -20 13 0 24 3 24 8 0 4 -17 49 -37
99 -31 75 -42 93 -59 93 -17 0 -27 -17 -57 -93z m73 -14 c0 -7 -9 -13 -20 -13
-17 0 -18 3 -8 25 8 19 14 22 20 13 4 -7 8 -19 8 -25z"/>
<path d="M401 1296 c-31 -17 -50 -53 -51 -94 0 -50 48 -92 104 -92 49 0 69 11
60 33 -4 12 -14 15 -35 10 -41 -8 -79 19 -79 57 0 38 37 64 78 55 23 -5 31 -2
36 11 4 10 1 21 -6 26 -20 12 -80 9 -107 -6z"/>
<path d="M582 1294 c-33 -23 -54 -70 -47 -104 4 -16 20 -41 37 -55 25 -21 39
-25 77 -23 38 3 46 6 46 23 0 17 -6 20 -37 17 -41 -4 -78 23 -78 57 0 30 48
63 82 56 21 -5 30 -2 34 10 4 10 1 21 -7 26 -22 14 -83 10 -107 -7z"/>
<path d="M730 1210 c0 -93 1 -100 20 -100 19 0 20 7 20 100 0 93 -1 100 -20
100 -19 0 -20 -7 -20 -100z"/>
<path d="M810 1210 l0 -100 46 0 c37 0 51 5 75 29 31 31 39 83 19 122 -15 26
-62 49 -105 49 l-35 0 0 -100z m76 52 c49 -32 29 -112 -27 -112 -5 0 -9 27 -9
60 0 59 8 71 36 52z"/>
<path d="M990 1210 l0 -100 55 0 c48 0 55 2 55 20 0 16 -7 20 -35 20 -28 0
-35 4 -35 20 0 16 7 20 35 20 28 0 35 4 35 20 0 16 -7 20 -36 20 -28 0 -35 3
-32 18 2 11 14 18 36 20 24 2 32 8 32 23 0 16 -7 19 -55 19 l-55 0 0 -100z"/>
<path d="M1137 1303 c-4 -3 -7 -48 -7 -100 0 -93 0 -93 25 -93 24 0 25 3 25
62 l0 61 40 -61 c27 -42 46 -62 60 -62 19 0 20 6 20 100 0 93 -1 100 -20 100
-18 0 -20 -7 -20 -62 l0 -63 -41 63 c-38 57 -64 74 -82 55z"/>
<path d="M1327 1303 c-16 -15 -6 -33 18 -33 25 0 25 -1 25 -80 0 -79 0 -80 25
-80 25 0 25 1 25 80 0 73 2 80 20 80 13 0 20 7 20 20 0 18 -7 20 -63 20 -35 0
-67 -3 -70 -7z"/>
<path d="M1507 1217 c-20 -51 -37 -96 -37 -100 0 -17 42 -6 47 13 4 16 14 20
45 20 31 0 41 -4 45 -20 3 -13 14 -20 29 -20 13 0 24 3 24 8 0 4 -17 49 -37
99 -31 75 -42 93 -59 93 -17 0 -27 -17 -57 -93z m73 -14 c0 -7 -9 -13 -20 -13
-17 0 -18 3 -8 25 8 19 14 22 20 13 4 -7 8 -19 8 -25z"/>
<path d="M1680 1210 l0 -100 55 0 c48 0 55 2 55 20 0 16 -7 20 -35 20 l-35 0
0 80 c0 73 -2 80 -20 80 -19 0 -20 -7 -20 -100z"/>
<path d="M1820 1210 c0 -93 1 -100 20 -100 19 0 20 7 20 100 0 93 -1 100 -20
100 -19 0 -20 -7 -20 -100z"/>
<path d="M1900 1211 l0 -101 45 0 c64 0 110 41 110 99 0 58 -36 92 -104 99
l-51 5 0 -102z m90 39 c11 -11 20 -29 20 -40 0 -23 -33 -60 -55 -60 -11 0 -15
13 -15 53 0 72 13 84 50 47z"/>
<path d="M2117 1248 c-14 -35 -33 -80 -41 -100 -16 -38 -16 -38 8 -38 16 0 27
7 31 20 5 15 15 20 45 20 30 0 40 -5 45 -20 4 -13 15 -20 31 -20 13 0 24 1 24
3 0 2 -17 46 -38 98 -50 122 -68 128 -105 37z m59 -55 c-2 -3 -11 -3 -19 -1
-11 2 -12 9 -5 28 l10 25 9 -24 c5 -13 7 -26 5 -28z"/>
<path d="M2277 1303 c-4 -3 -7 -48 -7 -100 l0 -93 35 0 c42 0 44 -13 10 -64
-24 -36 -25 -42 -23 -184 l2 -147 3 143 c3 121 7 147 23 175 l20 32 0 -317 0
-318 -25 0 -25 0 0 133 0 132 -105 -3 -105 -3 0 -95 c0 -77 -3 -94 -15 -94
-13 0 -15 26 -15 171 l0 171 -28 27 c-15 16 -35 39 -43 51 -18 27 -49 22 -49
-9 0 -10 -8 -21 -19 -24 -16 -4 -19 -19 -25 -105 l-7 -100 -132 0 c-73 0 -138
-1 -144 -1 -7 -1 -13 -12 -13 -24 0 -13 -9 -32 -20 -42 -20 -18 -20 -17 -20
108 0 119 -1 127 -19 127 -11 0 -23 -9 -26 -20 -4 -13 -15 -20 -31 -20 -15 0
-24 -6 -24 -15 0 -11 -12 -15 -45 -15 -38 0 -45 -3 -45 -20 0 -14 -5 -18 -16
-13 -15 5 -16 0 -12 -41 5 -38 3 -44 -8 -35 -7 6 -14 23 -16 37 -2 23 -8 27
-33 27 -23 0 -31 -5 -33 -22 -4 -27 -10 -28 -36 -8 -26 19 -65 19 -72 0 -4 -8
-12 -15 -20 -15 -10 0 -14 -12 -14 -40 l0 -40 -87 0 c-101 0 -133 -7 -133 -27
0 -7 -16 -23 -35 -34 -34 -21 -35 -22 -37 -92 l-2 -72 -3 60 c-2 33 -11 75
-20 93 -16 28 -22 32 -59 32 l-42 0 -7 -95 c-6 -83 -9 -95 -25 -95 -14 0 -20
9 -22 36 l-3 37 -57 4 -58 4 0 -40 c0 -33 -3 -41 -19 -41 -14 0 -20 10 -25 40
l-6 40 -50 0 -50 0 0 -40 0 -40 -145 0 -145 0 0 -62 c0 -35 -3 -92 -6 -128
l-6 -65 1248 0 c687 0 1799 1 2472 3 l1222 2 0 55 c0 29 -5 77 -11 105 l-11
50 -41 0 c-73 0 -87 -8 -87 -46 0 -31 -3 -34 -30 -34 -26 0 -30 4 -30 28 0 42
-11 72 -26 72 -8 0 -14 6 -14 13 0 8 -9 22 -20 32 -15 13 -20 31 -20 65 0 33
-6 52 -18 63 -24 22 -28 21 -52 -3 -12 -12 -33 -20 -55 -20 -35 0 -35 0 -35
-45 0 -37 -3 -45 -19 -45 -26 0 -31 18 -32 128 0 63 -6 115 -18 150 l-17 53
-36 -28 c-34 -27 -36 -31 -42 -108 -3 -44 -6 -115 -6 -157 0 -45 -4 -78 -10
-78 -6 0 -10 38 -10 95 l0 95 -50 0 -50 0 0 -84 c0 -65 -3 -85 -15 -90 -13 -5
-15 40 -17 347 l-3 352 -35 3 c-52 5 -110 -15 -110 -38 0 -10 -4 -22 -10 -25
-6 -4 -10 -113 -10 -295 0 -159 -4 -291 -9 -294 -14 -9 -21 48 -21 163 0 70
-4 111 -12 119 -17 17 -139 15 -164 -3 -17 -11 -22 -28 -26 -80 -6 -64 -16
-93 -25 -67 -14 37 -53 -5 -53 -58 0 -36 -2 -40 -17 -32 -21 11 -45 5 -56 -14
-8 -14 -65 -18 -104 -8 -19 5 -23 13 -23 48 0 64 -26 81 -117 77 -59 -2 -73 0
-73 12 0 8 -7 17 -15 21 -11 4 -15 22 -15 74 0 39 -5 73 -12 80 -7 7 -40 12
-79 12 -95 0 -99 -7 -99 -200 0 -127 -2 -150 -15 -150 -13 0 -15 20 -15 124 0
73 -4 127 -10 131 -5 3 -10 15 -10 25 0 27 -15 33 -66 25 l-44 -6 0 -195 c0
-166 -2 -195 -15 -201 -9 -3 -18 -4 -20 -2 -2 2 -7 92 -12 199 -8 186 -9 195
-28 195 -15 0 -21 -8 -23 -30 l-3 -31 -62 4 c-34 2 -74 -1 -89 -7 -27 -10 -28
-13 -28 -82 0 -61 -2 -70 -15 -59 -9 7 -15 35 -17 78 -2 47 -7 66 -15 64 -7
-1 -13 2 -13 8 0 5 -16 10 -35 10 l-35 0 -2 -87 c0 -49 -3 -73 -5 -55 -5 39
-39 57 -90 47 -27 -5 -33 -10 -33 -32 0 -17 -4 -23 -9 -17 -5 5 -11 104 -13
220 -4 195 -5 213 -26 246 -12 19 -22 43 -22 52 0 10 -4 14 -10 11 -5 -3 -10
3 -10 15 0 12 9 24 24 30 49 18 72 91 46 141 -20 36 -120 66 -143 42z m81 -49
c26 -18 29 -60 5 -86 -31 -34 -43 -23 -43 42 0 33 3 60 8 60 4 0 18 -7 30 -16z
m42 -279 c0 -2 -7 -2 -15 1 -8 4 -15 1 -15 -5 0 -6 6 -11 14 -11 20 0 26 -54
26 -247 0 -109 -4 -173 -10 -173 -5 0 -10 -15 -10 -32 0 -18 -3 -43 -6 -55
-18 -66 -24 6 -24 285 l0 307 20 -33 c11 -18 20 -34 20 -37z"/>
<path d="M2550 1288 c-24 -26 -25 -34 -4 -42 10 -4 22 0 28 10 7 9 21 15 32
12 35 -6 27 -36 -25 -91 -28 -30 -51 -57 -51 -60 0 -4 34 -7 75 -7 68 0 75 2
75 20 0 16 -7 20 -37 20 -37 0 -37 0 -15 16 30 21 54 70 47 94 -17 53 -87 68
-125 28z"/>
<path d="M2736 1291 c-22 -25 -34 -69 -29 -108 15 -98 141 -98 156 0 10 69
-26 127 -78 127 -18 0 -39 -8 -49 -19z m74 -40 c23 -44 9 -101 -25 -101 -26 0
-35 17 -35 64 0 52 39 76 60 37z"/>
<path d="M2913 1290 c-38 -23 -48 -66 -13 -55 19 6 20 2 20 -59 0 -59 2 -66
20 -66 19 0 20 7 20 100 0 55 -3 100 -7 100 -5 0 -23 -9 -40 -20z"/>
<path d="M3026 1240 c-25 -38 -46 -74 -46 -80 0 -5 20 -10 45 -10 38 0 45 -3
45 -20 0 -15 7 -20 25 -20 18 0 25 5 25 20 0 11 5 20 10 20 6 0 10 9 10 20 0
11 -4 20 -10 20 -6 0 -10 27 -10 60 0 56 -1 60 -24 60 -18 0 -34 -16 -70 -70z
m44 -30 c0 -11 -7 -20 -15 -20 -13 0 -14 4 -5 20 6 11 13 20 15 20 3 0 5 -9 5
-20z"/>
<path d="M3293 1284 c-24 -24 -25 -27 -9 -36 13 -7 22 -5 35 6 27 24 51 20 51
-8 0 -15 -19 -45 -51 -80 l-51 -56 81 0 c74 0 81 2 81 20 0 16 -7 20 -36 20
l-36 0 31 35 c38 43 41 87 9 109 -34 24 -75 20 -105 -10z"/>
<path d="M3482 1287 c-28 -30 -37 -77 -22 -121 20 -62 91 -78 129 -30 31 39
29 117 -4 149 -31 32 -74 33 -103 2z m82 -49 c18 -52 -29 -118 -55 -76 -10 15
-12 69 -3 93 10 25 47 14 58 -17z"/>
<path d="M3658 1289 c-30 -22 -40 -63 -13 -53 12 5 15 -5 15 -60 0 -64 1 -66
25 -66 l25 0 0 100 c0 109 -4 115 -52 79z"/>
<path d="M3760 1290 c-19 -19 -18 -40 2 -66 5 -7 3 -14 -7 -18 -21 -8 -19 -59
3 -79 25 -23 85 -22 105 1 21 23 22 56 2 76 -9 9 -11 17 -5 21 18 11 11 64 -9
75 -31 16 -69 12 -91 -10z m67 -26 c8 -21 -13 -42 -28 -27 -13 13 -5 43 11 43
6 0 13 -7 17 -16z m3 -94 c0 -13 -7 -20 -20 -20 -13 0 -20 7 -20 20 0 13 7 20
20 20 13 0 20 -7 20 -20z"/>
<path d="M3160 1180 c0 -17 7 -20 40 -20 33 0 40 3 40 20 0 17 -7 20 -40 20
-33 0 -40 -3 -40 -20z"/>
</g>
</svg>
